<?xml version="1.0" encoding="utf-8"?>
<!-- Generator: Adobe Illustrator 26.0.0, SVG Export Plug-In . SVG Version: 6.00 Build 0)  -->
<svg version="1.1" id="Capa_1" xmlns="http://www.w3.org/2000/svg" xmlns:xlink="http://www.w3.org/1999/xlink" x="0px" y="0px"
	 viewBox="0 0 19.5 19.6" style="enable-background:new 0 0 19.5 19.6;" xml:space="preserve">
<style type="text/css">
	.st0{fill:none;stroke:#FFFFFF;stroke-width:1.5;stroke-linecap:round;stroke-linejoin:round;}
	.st1{fill:none;stroke:#FFFFFF;stroke-width:1.5;}
</style>
<g>
	<path class="st0" d="M9.8,13.8c2.2,0,4-1.8,4-4c0-2.2-1.8-4-4-4c-2.2,0-4,1.8-4,4C5.8,12,7.6,13.8,9.8,13.8z"/>
	<path class="st1" d="M0.8,13.8v-8c0-2.8,2.2-5,5-5h8c2.8,0,5,2.2,5,5v8c0,2.8-2.2,5-5,5h-8C3,18.8,0.8,16.6,0.8,13.8z"/>
	<path class="st0" d="M15.3,4.3L15.3,4.3"/>
</g>
</svg>
