<?xml version="1.0" encoding="utf-8"?>
<!-- Generator: Adobe Illustrator 26.0.0, SVG Export Plug-In . SVG Version: 6.00 Build 0)  -->
<svg version="1.1" id="Capa_1" xmlns="http://www.w3.org/2000/svg" xmlns:xlink="http://www.w3.org/1999/xlink" x="0px" y="0px"
	 viewBox="0 0 273 349.7" style="enable-background:new 0 0 273 349.7;" xml:space="preserve">
<style type="text/css">
	.st0{fill:#FFFFFF;}
</style>
<g>
	<path class="st0" d="M135.8,0C63.1,0,3.8,59.2,3.8,132c0,30.1,21.2,74.7,62.9,132.5c30.5,42.2,61.4,76.6,61.7,77l7.4,8.2l7.4-8.2
		c0.3-0.3,31.2-34.7,61.7-77c41.7-57.8,62.9-102.4,62.9-132.5C267.8,59.2,208.6,0,135.8,0z M135.8,319.6
		c-37.1-42.7-112-139-112-187.6c0-61.7,50.2-112,112-112s112,50.2,112,112C247.8,180.5,172.9,276.9,135.8,319.6z"/>
	<circle class="st0" cx="135.8" cy="132" r="49.7"/>
</g>
</svg>
