<?xml version="1.0" encoding="utf-8"?>
<!-- Generator: Adobe Illustrator 26.0.0, SVG Export Plug-In . SVG Version: 6.00 Build 0)  -->
<svg version="1.1" id="Layer_1" xmlns="http://www.w3.org/2000/svg" xmlns:xlink="http://www.w3.org/1999/xlink" x="0px" y="0px"
	 viewBox="0 0 511.9 512" style="enable-background:new 0 0 511.9 512;" xml:space="preserve">
<style type="text/css">
	.st0{fill:#231F20;}
</style>
<g>
	<path class="st0" d="M191.7,384.4c46.1,0,89.7-16.4,124.4-46.1l168.5,169c3.1,3.1,7.2,4.7,11.3,4.7c4.1,0,8.2-1.6,11.3-4.7
		c6.3-6.2,6.3-16.4,0-22.6L338.6,315.6c63.2-75.4,59.5-188.4-11.3-259.3C291.1,20,242.9,0,191.7,0S92.3,20,56.1,56.3
		c-74.7,74.9-74.7,196.9,0,271.8C92.3,364.4,140.5,384.4,191.7,384.4z M78.7,78.9C108.9,48.7,149,32,191.7,32s82.8,16.7,113,46.9
		c62.3,62.5,62.3,164.1,0,226.6c-30.2,30.3-70.3,46.9-113,46.9s-82.8-16.7-113-46.9C16.4,243,16.4,141.4,78.7,78.9z"/>
</g>
</svg>
